<?xml version="1.0" encoding="UTF-8" standalone="no"?>
<!-- Created with Inkscape (http://www.inkscape.org/) -->
<svg
   xmlns:svg="http://www.w3.org/2000/svg"
   xmlns="http://www.w3.org/2000/svg"
   version="1.0"
   width="455.82391"
   height="502.79993"
   id="svg2974">
  <defs
     id="defs2976">
    <marker
       markerUnits="strokeWidth"
       refX="0"
       refY="5"
       markerWidth="4"
       markerHeight="3"
       orient="auto"
       viewBox="0 0 10 10"
       id="ArrowEnd">
      <path
         d="M 0,0 L 10,5 L 0,10 L 0,0 z"
         id="path2979" />
    </marker>
    <marker
       markerUnits="strokeWidth"
       refX="10"
       refY="5"
       markerWidth="4"
       markerHeight="3"
       orient="auto"
       viewBox="0 0 10 10"
       id="ArrowStart">
      <path
         d="M 10,0 L 0,5 L 10,10 L 10,0 z"
         id="path2982" />
    </marker>
  </defs>
  <g
     transform="translate(-10.538538,-10.538538)"
     id="g2984">
    <g
       id="g2986">
      <g
         id="g2988">
        <path
           d="M 11.6511,285.392 C 11.652,410.344 113.535,512.227 238.452,512.227 C 363.369,512.227 465.252,410.344 465.251,285.392 L 465.25,11.65 L 238.45,11.65 L 11.65,11.65 L 11.6511,285.392 z"
           id="path2990"
           style="fill:#58ff00;stroke:#000000;stroke-width:2.22292352" />
        <path
           d="M 345.981,134.793 L 354.336,143.148 L 89.9348,407.549 L 81.5804,399.194 L 345.981,134.793 z"
           id="path2992"
           style="fill:#ffff00;stroke:#000000;stroke-width:0.21602701" />
        <path
           d="M 82.6392,397.964 C 83.5555,399.884 84.6252,401.648 86.0461,403.069 C 87.4667,404.489 89.2309,405.56 91.1519,406.477 C 90.9328,406.696 90.7136,406.915 90.495,407.134 C 90.2762,407.353 90.057,407.572 89.8382,407.791 C 87.9174,406.873 86.1532,405.803 84.7326,404.382 C 83.3123,402.961 82.2421,401.198 81.3252,399.278 C 81.5441,399.06 81.7632,398.84 81.9821,398.622 C 82.2009,398.403 82.4201,398.184 82.6392,397.964 z"
           id="path2994"
           style="fill:#000000;stroke:#000000;stroke-width:0.21602701" />
        <path
           d="M 299.005,183.771 L 298.005,182.77 L 82.3733,398.401 L 83.3741,399.402 L 299.005,183.771 z"
           id="path2996"
           style="fill:#000000;stroke:#000000;stroke-width:0.21602701" />
        <path
           d="M 306.359,191.124 L 305.358,190.124 L 89.6689,405.813 L 90.6697,406.814 L 306.359,191.124 z"
           id="path2998"
           style="fill:#000000;stroke:#000000;stroke-width:0.21602701" />
        <g
           id="g3000">
          <path
             d="M 246.213,453.382 C 246.644,455.42 246.882,457.658 246.882,460.005 C 246.882,469.391 243.066,477.046 238.387,477.046 C 233.707,477.046 229.891,469.391 229.891,460.005 C 229.891,457.658 228.356,453.382 230.56,453.382 L 246.213,453.382 z"
             id="path3002"
             style="fill:#000000;stroke:#000000;stroke-width:0.21602701" />
          <path
             d="M 238.387,444.664 C 242.174,444.664 245.263,451.591 245.263,460.084 C 245.263,468.576 242.174,475.503 238.387,475.503 C 234.599,475.503 231.51,468.576 231.51,460.084 C 231.51,451.591 234.599,444.664 238.387,444.664 z"
             id="path3004"
             style="fill:#ffff00;stroke:#000000;stroke-width:0.21602701" />
        </g>
        <path
           d="M 230.692,186.616 L 245.422,186.616 L 245.422,453.636 L 230.692,453.636 L 230.692,186.616 z"
           id="path3006"
           style="fill:#ffff00;stroke:#000000;stroke-width:0.21602701" />
        <path
           d="M 230.209,186.25 L 231.347,186.25 L 231.347,454.195 L 230.209,454.195 L 230.209,186.25 z"
           id="path3008"
           style="fill:#000000;stroke:#000000;stroke-width:0.21602701" />
        <path
           d="M 233.31,186.25 L 234.541,186.25 L 234.541,454.195 L 233.31,454.195 L 233.31,186.25 z"
           id="path3010"
           style="fill:#000000;stroke:#000000;stroke-width:0.21602701" />
        <path
           d="M 241.815,186.25 L 243.046,186.25 L 243.046,454.195 L 241.815,454.195 L 241.815,186.25 z"
           id="path3012"
           style="fill:#000000;stroke:#000000;stroke-width:0.21602701" />
        <path
           d="M 245.135,186.25 L 246.273,186.25 L 246.273,454.195 L 245.135,454.195 L 245.135,186.25 z"
           id="path3014"
           style="fill:#000000;stroke:#000000;stroke-width:0.21602701" />
        <g
           id="g3016">
          <path
             d="M 229.05,453.412 L 247.432,453.412 C 248.174,453.412 248.781,454.033 248.781,454.793 L 248.781,459.54 C 248.781,460.3 248.174,460.921 247.432,460.921 L 229.05,460.921 C 228.307,460.921 227.701,460.3 227.701,459.54 L 227.701,454.793 C 227.701,454.033 228.307,453.412 229.05,453.412 z"
             id="path3018"
             style="fill:#000000;stroke:#000000;stroke-width:0.21602701" />
          <path
             d="M 230.278,454.521 L 246.203,454.521 C 246.847,454.521 247.372,454.959 247.372,455.494 L 247.372,458.839 C 247.372,459.374 246.847,459.812 246.203,459.812 L 230.278,459.812 C 229.635,459.812 229.11,459.374 229.11,458.839 L 229.11,455.494 C 229.11,454.959 229.635,454.521 230.278,454.521 z"
             id="path3020"
             style="fill:#ffff00;stroke:#000000;stroke-width:0.21602701" />
        </g>
        <g
           id="g3022">
          <path
             d="M 230.057,336.649 L 246.425,336.649 C 246.816,336.649 247.136,336.401 247.136,336.099 L 247.136,332.231 C 247.136,331.928 246.816,331.681 246.425,331.681 L 230.057,331.681 C 229.666,331.681 229.347,331.928 229.347,332.231 L 229.347,336.099 C 229.347,336.401 229.666,336.649 230.057,336.649 z"
             id="path3024"
             style="fill:#000000;stroke:#000000;stroke-width:0.93611699" />
          <path
             d="M 231.086,335.291 L 245.396,335.291 C 245.764,335.291 246.064,335.132 246.064,334.937 L 246.064,332.65 C 246.064,332.455 245.764,332.296 245.396,332.296 L 231.086,332.296 C 230.718,332.296 230.418,332.455 230.418,332.65 L 230.418,334.937 C 230.418,335.132 230.718,335.291 231.086,335.291 z"
             id="path3026"
             style="fill:#ffff00;stroke:#000000;stroke-width:0.93611699" />
        </g>
        <g
           id="g3028">
          <path
             d="M 227.907,333.242 L 248.575,333.242 C 249.457,333.242 250.179,332.715 250.179,332.07 L 250.179,328.124 C 250.179,327.48 249.457,326.953 248.575,326.953 L 227.907,326.953 C 227.024,326.953 226.303,327.48 226.303,328.124 L 226.303,332.07 C 226.303,332.715 227.024,333.242 227.907,333.242 z"
             id="path3030"
             style="fill:#000000;stroke:#000000;stroke-width:0.93611699" />
          <path
             d="M 228.336,332.118 L 248.146,332.118 C 248.655,332.118 249.07,331.884 249.07,331.599 L 249.07,328.251 C 249.07,327.965 248.655,327.732 248.146,327.732 L 228.336,327.732 C 227.827,327.732 227.411,327.965 227.411,328.251 L 227.411,331.599 C 227.411,331.884 227.827,332.118 228.336,332.118 z"
             id="path3032"
             style="fill:#ffff00;stroke:#000000;stroke-width:0.93611699" />
        </g>
        <path
           d="M 160.642,164.792 L 152.288,173.146 L 386.673,407.532 L 395.028,399.177 L 160.642,164.792 z"
           id="path3034"
           style="fill:#ffff00;stroke:#000000;stroke-width:0.21602701" />
        <path
           d="M 153.549,172.406 L 152.549,173.407 L 386.334,407.193 L 387.335,406.192 L 153.549,172.406 z"
           id="path3036"
           style="fill:#000000;stroke:#000000;stroke-width:0.21602701" />
        <path
           d="M 160.903,165.053 L 159.902,166.053 L 393.688,399.839 L 394.689,398.838 L 160.903,165.053 z"
           id="path3038"
           style="fill:#000000;stroke:#000000;stroke-width:0.21602701" />
        <path
           d="M 385.572,406.584 C 387.491,405.668 389.254,404.6 390.674,403.18 C 392.094,401.76 393.163,399.996 394.08,398.076 C 394.299,398.295 394.518,398.514 394.737,398.733 C 394.956,398.952 395.175,399.171 395.394,399.39 C 394.477,401.31 393.407,403.073 391.987,404.493 C 390.566,405.913 388.805,406.982 386.886,407.898 C 386.667,407.679 386.448,407.46 386.229,407.241 C 386.01,407.022 385.791,406.803 385.572,406.584 z"
           id="path3040"
           style="fill:#000000;stroke:#000000;stroke-width:0.21602701" />
        <path
           d="M 83.242,95.7185 C 104.409,101.124 119.396,108.536 144.983,144.835 C 146.711,143.099 148.601,141.416 148.816,141.158 C 149.768,141.986 152.21,144.746 153.184,145.501 C 153.867,146.031 153.948,146.257 153.147,147.323 C 151.384,149.669 148.273,153.186 153.708,157.283 C 160.842,162.661 166.444,166.423 165.372,167.494 L 155.058,177.808 C 154.007,178.859 150.228,173.352 144.932,166.348 C 140.686,160.732 137.175,163.842 134.844,165.615 C 133.785,166.42 133.567,166.345 133.033,165.655 C 132.218,164.597 129.582,162.255 128.687,161.226 C 129.096,160.375 130.979,159.186 132.125,157.465 C 96.3759,132.244 87.9157,116.041 83.242,95.7185 z"
           id="path3042"
           style="fill:#000000;stroke:#000000;stroke-width:0.21602701" />
        <path
           d="M 84.8653,97.5573 C 103.846,103.388 118.746,109.08 144.657,147.566 L 148.894,143.455 C 149.951,144.574 150.989,145.505 152.074,146.616 C 150.632,149.191 146.042,153.317 152.143,158.047 C 159.188,163.511 164.719,166.544 163.754,167.508 L 154.816,176.447 C 153.869,177.393 150.826,171.951 145.446,165.032 C 140.348,158.476 136.625,163.249 134.07,164.489 C 133.549,163.759 131.664,162.403 130.934,161.37 L 134.857,157.35 C 96.8406,131.307 90.4074,116.529 84.8653,97.5573 z"
           id="path3044"
           style="fill:#ffff00;stroke:#000000;stroke-width:0.21602701" />
        <path
           d="M 107.369,136.098 C 109.376,133.821 114.787,130.808 117.698,130.404 C 118.34,127.173 121.059,122.004 123.32,120.147 C 123.649,120.476 124.2,121.027 124.529,121.357 C 121.912,123.278 119.085,129.154 118.745,131.776 C 115.621,132.305 110.667,134.738 108.578,137.308 C 108.249,136.978 107.698,136.428 107.369,136.098 z"
           id="path3046"
           style="fill:#000000;stroke:#000000;stroke-width:0.21602701" />
        <path
           d="M 123.275,150 C 125.083,147.616 129.596,145.726 132.708,145.594 C 133.076,142.552 134.883,137.962 137.28,135.994 C 137.622,136.336 138.382,137.096 138.724,137.438 C 136.142,139.298 134.078,144.147 133.812,146.779 C 130.679,147.221 126.559,148.726 124.529,151.254 C 124.188,150.913 123.616,150.341 123.275,150 z"
           id="path3048"
           style="fill:#000000;stroke:#000000;stroke-width:0.21602701" />
        <path
           d="M 89.3687,103.042 C 88.8136,102.325 89.2306,101.971 89.9212,102.489 C 96.3604,108.928 109.014,121.182 115.454,127.621 C 115.136,127.939 114.818,128.257 114.501,128.574 C 108.061,122.135 95.8081,109.481 89.3687,103.042 z"
           id="path3050"
           style="fill:#000000;stroke:#000000;stroke-width:0.21602701" />
        <path
           d="M 119.636,133.71 C 119.328,133.241 120.134,132.473 120.589,132.756 C 124.522,136.69 127.198,139.365 131.131,143.299 C 130.813,143.616 130.496,143.934 130.178,144.252 C 126.245,140.318 123.569,137.643 119.636,133.71 z"
           id="path3052"
           style="fill:#000000;stroke:#000000;stroke-width:0.21602701" />
        <path
           d="M 157.758,171.832 C 158.344,172.256 159.106,171.445 158.711,170.879 C 153.595,165.763 140.511,153.079 135.395,147.962 C 135.077,148.281 135.16,148.197 134.842,148.515 C 139.959,153.631 152.642,166.716 157.758,171.832 z"
           id="path3054"
           style="fill:#000000;stroke:#000000;stroke-width:0.21602701" />
        <path
           d="M 155.389,174.174 L 156.243,173.32 L 148.842,165.919 L 155.389,174.174 z"
           id="path3056"
           style="fill:#000000;stroke:#000000;stroke-width:0.21602701" />
        <path
           d="M 161.254,168.309 L 160.4,169.163 L 152.999,161.762 L 161.254,168.309 z"
           id="path3058"
           style="fill:#000000;stroke:#000000;stroke-width:0.21602701" />
        <g
           id="g3060">
          <path
             d="M 153.301,176.526 L 164.022,165.806 C 164.451,165.377 165.169,165.396 165.62,165.846 L 167.977,168.204 C 168.428,168.654 168.446,169.373 168.018,169.801 L 157.297,180.522 C 156.869,180.95 156.15,180.932 155.699,180.481 L 153.342,178.124 C 152.891,177.674 152.873,176.955 153.301,176.526 z"
             id="path3062"
             style="fill:#000000;stroke:#000000;stroke-width:0.21602701" />
          <path
             d="M 154.5,177.114 L 164.414,167.2 C 164.621,166.993 164.9,166.933 165.033,167.066 L 166.673,168.706 C 166.807,168.839 166.747,169.118 166.539,169.325 L 156.625,179.239 C 156.418,179.447 156.139,179.507 156.006,179.373 L 154.366,177.733 C 154.232,177.6 154.292,177.322 154.5,177.114 z"
             id="path3064"
             style="fill:#ffff00;stroke:#000000;stroke-width:0.21602701" />
        </g>
        <path
           d="M 378.993,88.4541 C 390.969,92.5118 396.659,98.4455 400.839,110.3 L 339.919,170.952 C 332.414,177.312 330.604,178.161 312.83,187.092 C 310.36,188.333 306.14,191.469 303.007,194.349 L 294.936,186.278 C 297.696,182.927 300.789,179.125 302.417,176.207 C 309.636,160.753 311.748,156.988 318.207,149.24 L 378.993,88.4541 z"
           id="path3066"
           style="fill:#000000;stroke:#000000;stroke-width:0.21602701" />
        <path
           d="M 379.092,90.8775 C 389.228,93.3553 395.819,100.181 398.414,110.199 L 338.554,170.06 C 328.832,179.782 312.428,182.822 302.706,192.544 L 296.751,186.588 C 306.473,176.866 309.51,160.46 319.232,150.738 L 379.092,90.8775 z"
           id="path3068"
           style="fill:#ffff00;stroke:#000000;stroke-width:0.21602701" />
        <path
           d="M 391.38,96.7629 L 392.529,97.9122 L 298.482,191.959 L 297.333,190.809 L 391.38,96.7629 z"
           id="path3070"
           style="fill:#000000;stroke:#000000;stroke-width:0.21602701" />
        <path
           d="M 292.849,188.13 C 300.721,183.242 308.313,177.775 321.362,167.93 C 311.328,180.801 305.897,188.357 301.009,196.229 L 292.849,188.13 z"
           id="path3072"
           style="fill:#000000;stroke:#000000;stroke-width:0.21602701" />
        <path
           d="M 293.741,189.184 C 299.019,185.885 306.811,181.232 315.13,174.162 C 306.601,184.184 303.255,190.088 299.956,195.367 L 293.741,189.184 z"
           id="path3074"
           style="fill:#ffff00;stroke:#000000;stroke-width:0.21602701" />
        <g
           id="g3076">
          <path
             d="M 213.129,101.349 C 210.18,112.17 197.518,110.337 195.655,102.034 C 185.73,98.6054 187.656,87 195.611,84.8891 C 198.085,75.6768 211.206,75.3261 212.989,85.5865 L 230.357,85.5213 L 230.363,68.3503 C 220.821,66.1962 219.799,53.6247 229.622,51.0704 C 230.909,47.1663 233.085,44.1513 238.438,44.3131 C 241.404,44.5709 244.923,45.8219 246.676,51.0451 C 256.08,53.3166 255.822,66.3388 245.862,68.3171 L 245.784,85.6486 L 263.033,85.6942 C 265.945,74.644 278.109,76.1944 280.544,84.8276 C 288.877,87.2711 290.518,98.3715 280.535,102.029 C 277.088,111.855 264.701,110.43 263.094,101.277 L 245.97,101.315 L 245.727,124.195 L 261.173,124.282 L 276.618,124.369 C 278.285,114.305 291.703,113.897 294.032,123.475 C 301.481,125.207 304.754,136.3 294.032,140.755 C 289.634,151.167 278.348,148.595 276.673,139.77 L 245.986,139.797 L 245.871,149.415 L 245.886,182.11 L 230.537,182.104 L 230.381,139.963 L 199.586,139.844 C 197.215,150.125 184.603,149.353 182.271,140.66 C 171.728,137.155 174.45,125.671 182.147,123.481 C 185.456,113.419 197.691,114.873 199.726,124.366 L 230.35,124.223 L 230.232,101.371 L 213.129,101.349 z"
             id="path3078"
             style="fill:#ffff00;stroke:#000000;stroke-width:2.19995999" />
          <path
             d="M 213.129,101.349 C 210.18,112.17 197.518,110.337 195.655,102.034 C 185.73,98.6054 187.656,87 195.611,84.8891 C 198.085,75.6768 211.206,75.3261 212.989,85.5865 L 230.357,85.5213 L 230.363,68.3503 C 220.821,66.1962 219.799,53.6247 229.622,51.0704 C 230.909,47.1663 233.085,44.1513 238.438,44.3131 C 241.404,44.5709 244.923,45.8219 246.676,51.0451 C 256.08,53.3166 255.822,66.3388 245.862,68.3171 L 245.784,85.6486 L 263.033,85.6942 C 265.945,74.644 278.109,76.1944 280.544,84.8276 C 288.877,87.2711 290.518,98.3715 280.535,102.029 C 277.088,111.855 264.701,110.43 263.094,101.277 L 245.97,101.315 L 245.727,124.195 L 261.173,124.282 L 276.618,124.369 C 278.285,114.305 291.703,113.897 294.032,123.475 C 301.481,125.207 304.754,136.3 294.032,140.755 C 289.634,151.167 278.348,148.595 276.673,139.77 L 245.986,139.797 L 245.871,149.415 L 245.886,182.11 L 230.537,182.104 L 230.381,139.963 L 199.586,139.844 C 197.215,150.125 184.603,149.353 182.271,140.66 C 171.728,137.155 174.45,125.671 182.147,123.481 C 185.456,113.419 197.691,114.873 199.726,124.366 L 230.35,124.223 L 230.232,101.371 L 213.129,101.349 z"
             id="path3080"
             style="fill:#ffff00;stroke:#000000;stroke-width:2.19995999" />
        </g>
        <path
           d="M 246.305,123.775 L 276.353,123.775 C 277.051,119.407 280.846,116.051 285.405,116.051 C 289.714,116.051 293.346,119.049 294.319,123.066 C 298.336,124.04 301.335,127.672 301.335,131.981 C 301.335,136.254 298.388,139.86 294.374,140.872 C 293.359,144.902 289.722,147.911 285.405,147.911 C 280.843,147.911 277.04,144.556 276.354,140.189 L 246.305,140.188 L 246.305,180.897 L 245.331,180.897 L 245.331,139.223 L 277.212,139.223 C 277.464,143.519 281.047,146.946 285.405,146.946 C 289.466,146.946 292.854,143.97 293.506,140.082 C 297.394,139.431 300.369,136.042 300.369,131.981 C 300.369,127.92 297.393,124.532 293.506,123.88 C 292.854,119.992 289.466,117.016 285.405,117.016 C 281.047,117.016 277.464,120.443 277.212,124.741 L 245.344,124.74 L 245.339,100.664 L 263.664,100.664 C 263.916,104.961 267.499,108.387 271.856,108.387 C 275.917,108.387 279.306,105.411 279.957,101.523 C 283.845,100.872 286.821,97.4839 286.821,93.4227 C 286.821,89.3616 283.845,85.9735 279.957,85.3217 C 279.306,81.4338 275.917,78.4579 271.856,78.4579 C 267.499,78.4579 263.915,81.8846 263.664,86.1821 L 245.339,86.1821 L 245.338,67.8102 C 249.636,67.5584 253.062,63.9753 253.062,59.6173 C 253.062,55.5565 250.087,52.1681 246.199,51.5166 C 245.547,47.629 242.159,44.6531 238.098,44.6531 C 234.037,44.6531 230.648,47.6287 229.997,51.5166 C 226.11,52.1681 223.134,55.5565 223.134,59.6173 C 223.134,63.975 226.56,67.5582 230.856,67.8102 L 230.856,86.1855 L 229.886,86.1835 L 212.532,86.1821 C 212.28,81.8846 208.697,78.4579 204.34,78.4579 C 200.278,78.4579 196.89,81.4338 196.239,85.3217 C 192.351,85.9735 189.375,89.3616 189.375,93.4227 C 189.375,97.4839 192.351,100.872 196.239,101.523 C 196.89,105.411 200.278,108.387 204.34,108.387 C 208.697,108.387 212.28,104.961 212.532,100.664 L 230.894,100.664 L 230.893,124.738 L 199.032,124.741 C 198.78,120.443 195.197,117.016 190.839,117.016 C 186.778,117.016 183.39,119.992 182.738,123.88 C 178.85,124.532 175.874,127.92 175.874,131.981 C 175.874,136.042 178.85,139.431 182.738,140.082 C 183.39,143.97 186.778,146.946 190.839,146.946 C 195.197,146.946 198.78,143.519 199.032,139.223 L 230.862,139.223 L 230.862,180.917 L 229.885,180.917 L 229.885,140.188 L 199.89,140.189 C 199.204,144.556 195.401,147.911 190.839,147.911 C 186.522,147.911 182.885,144.902 181.87,140.872 C 177.856,139.86 174.909,136.254 174.909,131.981 C 174.909,127.672 177.908,124.04 181.925,123.066 C 182.898,119.049 186.53,116.051 190.839,116.051 C 195.398,116.051 199.193,119.407 199.891,123.775 L 229.892,123.773 L 229.889,101.63 L 213.39,101.63 C 212.704,105.997 208.902,109.353 204.34,109.353 C 200.022,109.353 196.385,106.343 195.37,102.314 C 191.357,101.302 188.409,97.6954 188.409,93.4227 C 188.409,89.113 191.409,85.481 195.425,84.5072 C 196.399,80.4906 200.03,77.4926 204.34,77.4926 C 208.899,77.4926 212.694,80.8484 213.392,85.216 L 229.89,85.2157 L 229.89,68.6684 C 225.523,67.9823 222.168,64.1797 222.168,59.6173 C 222.168,55.3002 225.177,51.6632 229.207,50.6485 C 230.219,46.6347 233.825,43.6875 238.098,43.6875 C 242.408,43.6875 246.04,46.6863 247.013,50.7032 C 251.03,51.6768 254.028,55.3084 254.028,59.6173 C 254.028,64.1766 250.672,67.9715 246.305,68.6698 L 246.305,85.2162 L 262.804,85.216 C 263.502,80.8484 267.297,77.4926 271.856,77.4926 C 276.165,77.4926 279.797,80.4906 280.771,84.5072 C 284.788,85.481 287.786,89.113 287.786,93.4227 C 287.786,97.6954 284.839,101.302 280.825,102.314 C 279.811,106.343 276.174,109.353 271.856,109.353 C 267.294,109.353 263.492,105.997 262.805,101.63 L 246.304,101.63 L 246.305,123.775 z"
           id="path3082"
           style="fill:#000000;stroke:#000000;stroke-width:0.93611699" />
        <path
           d="M 243.889,126.187 L 243.893,99.216 L 265.167,99.2158 C 265.121,99.5313 265.098,99.8536 265.098,100.181 C 265.098,103.904 268.134,106.94 271.856,106.94 C 275.579,106.94 278.615,103.904 278.615,100.181 C 282.337,100.181 285.374,97.1454 285.374,93.423 C 285.374,89.7004 282.337,86.6644 278.615,86.6644 C 278.615,82.942 275.579,79.906 271.856,79.906 C 268.134,79.906 265.098,82.942 265.098,86.6644 C 265.098,86.993 265.121,87.3099 265.168,87.6249 L 243.891,87.6291 L 243.896,66.3059 C 244.211,66.3524 244.528,66.376 244.856,66.376 C 248.579,66.376 251.615,63.34 251.615,59.6173 C 251.615,55.895 248.579,52.859 244.856,52.859 C 244.856,49.1366 241.82,46.1003 238.098,46.1003 C 234.375,46.1003 231.339,49.1366 231.339,52.859 C 227.617,52.859 224.581,55.895 224.581,59.6173 C 224.581,63.34 227.617,66.376 231.339,66.376 C 231.667,66.376 231.989,66.3524 232.305,66.3068 L 232.305,87.6257 L 211.028,87.6249 C 211.074,87.3099 211.098,86.993 211.098,86.6644 C 211.098,82.942 208.062,79.906 204.34,79.906 C 200.617,79.906 197.581,82.942 197.581,86.6644 C 193.859,86.6644 190.823,89.7004 190.823,93.423 C 190.823,97.1454 193.859,100.181 197.581,100.181 C 197.581,103.904 200.617,106.94 204.34,106.94 C 208.062,106.94 211.098,103.904 211.098,100.181 C 211.098,99.8536 211.075,99.5313 211.029,99.2158 L 232.287,99.2158 L 232.288,126.185 L 197.528,126.183 C 197.574,125.868 197.598,125.551 197.598,125.223 C 197.598,121.501 194.562,118.465 190.839,118.465 C 187.117,118.465 184.08,121.501 184.081,125.223 C 180.358,125.223 177.322,128.259 177.322,131.982 C 177.322,135.704 180.358,138.74 184.081,138.74 C 184.08,142.462 187.117,145.499 190.839,145.499 C 194.562,145.499 197.598,142.462 197.598,138.74 C 197.598,138.412 197.574,138.09 197.528,137.774 L 232.295,137.775 L 232.295,182.193 L 233.788,182.193 L 233.788,136.326 L 196.145,136.326 L 196.145,137.783 L 196.149,138.739 C 196.149,141.663 193.764,144.049 190.839,144.049 C 187.914,144.049 185.529,141.663 185.529,138.739 C 185.529,138.282 185.578,137.836 185.699,137.414 C 185.83,136.957 185.943,136.947 185.491,137.102 C 185.052,137.251 184.57,137.292 184.081,137.292 C 181.157,137.292 178.771,134.906 178.771,131.981 C 178.771,129.056 181.157,126.671 184.081,126.671 C 184.574,126.671 185.051,126.739 185.506,126.864 C 185.85,126.96 185.837,127.053 185.737,126.702 C 185.602,126.232 185.529,125.736 185.529,125.223 C 185.529,122.299 187.914,119.913 190.839,119.913 C 193.764,119.913 196.151,122.299 196.149,125.223 L 196.15,126.172 L 196.15,127.636 L 233.791,127.634 L 233.793,97.7676 L 209.646,97.7676 L 209.645,99.2248 L 209.65,100.18 C 209.65,103.105 207.264,105.49 204.34,105.49 C 201.415,105.49 199.029,103.105 199.029,100.18 C 199.029,99.7235 199.078,99.2773 199.199,98.8554 C 199.33,98.3984 199.444,98.3888 198.992,98.543 C 198.552,98.6927 198.071,98.733 197.582,98.733 C 194.657,98.733 192.272,96.3476 192.272,93.4227 C 192.272,90.4978 194.657,88.1125 197.582,88.1125 C 198.074,88.1125 198.552,88.18 199.007,88.3058 C 199.351,88.4011 199.337,88.4949 199.237,88.1437 C 199.102,87.6736 199.029,87.1775 199.029,86.6649 C 199.029,83.7401 201.415,81.3544 204.34,81.3544 C 207.264,81.3544 209.651,83.7401 209.65,86.6649 L 209.65,87.6138 L 209.651,89.0778 L 233.752,89.0775 L 233.753,64.9233 L 232.296,64.923 L 231.34,64.9279 C 228.416,64.9279 226.03,62.5422 226.03,59.6173 C 226.03,56.6927 228.416,54.3071 231.34,54.3071 C 231.797,54.3071 232.243,54.3561 232.665,54.4769 C 233.122,54.6082 233.132,54.7219 232.978,54.2697 C 232.828,53.8305 232.788,53.3486 232.788,52.8598 C 232.788,49.935 235.173,47.5496 238.098,47.5496 C 241.023,47.5496 243.408,49.935 243.408,52.8598 C 243.408,53.3523 243.34,53.8297 243.214,54.2847 C 243.12,54.6283 243.025,54.6155 243.377,54.5149 C 243.847,54.3805 244.343,54.3071 244.856,54.3071 C 247.781,54.3071 250.166,56.6927 250.166,59.6173 C 250.166,62.5422 247.781,64.929 244.856,64.9279 L 243.907,64.9281 L 242.443,64.9287 L 242.443,89.0778 L 266.545,89.0778 L 266.546,87.6138 L 266.546,86.6649 C 266.545,83.7401 268.932,81.3544 271.856,81.3544 C 274.781,81.3544 277.167,83.7401 277.167,86.6649 C 277.167,87.1775 277.093,87.6736 276.959,88.1437 C 276.858,88.4949 276.846,88.4011 277.189,88.3058 C 277.644,88.18 278.122,88.1125 278.614,88.1125 C 281.539,88.1125 283.924,90.4978 283.924,93.4227 C 283.924,96.3476 281.539,98.733 278.614,98.733 C 278.125,98.733 277.643,98.6927 277.204,98.543 C 276.752,98.3888 276.866,98.3984 276.997,98.8554 C 277.118,99.2773 277.167,99.7235 277.167,100.18 C 277.167,103.105 274.781,105.49 271.856,105.49 C 268.932,105.49 266.546,103.105 266.546,100.18 L 266.551,99.2248 L 266.551,97.7676 L 242.443,97.7676 L 242.443,127.637 L 280.094,127.636 L 280.094,126.172 L 280.094,125.223 C 280.093,122.299 282.48,119.913 285.405,119.913 C 288.33,119.913 290.715,122.299 290.715,125.223 C 290.715,125.736 290.642,126.232 290.507,126.702 C 290.407,127.053 290.394,126.96 290.738,126.864 C 291.193,126.739 291.67,126.671 292.162,126.671 C 295.087,126.671 297.473,129.056 297.473,131.981 C 297.473,134.906 295.087,137.292 292.162,137.292 C 291.674,137.292 291.192,137.251 290.753,137.102 C 290.3,136.947 290.414,136.957 290.545,137.414 C 290.666,137.836 290.715,138.282 290.715,138.739 C 290.715,141.663 288.33,144.049 285.405,144.049 C 282.48,144.049 280.094,141.663 280.094,138.739 L 280.099,137.783 L 280.099,136.326 L 242.438,136.326 L 242.438,182.192 L 243.888,182.192 L 243.888,137.775 L 278.715,137.774 C 278.67,138.09 278.646,138.412 278.646,138.74 C 278.646,142.462 281.682,145.499 285.405,145.499 C 289.127,145.499 292.163,142.462 292.163,138.74 C 295.886,138.74 298.922,135.704 298.922,131.982 C 298.922,128.259 295.886,125.223 292.163,125.223 C 292.163,121.501 289.127,118.465 285.405,118.465 C 281.682,118.465 278.646,121.501 278.646,125.223 C 278.646,125.551 278.67,125.868 278.716,126.183 L 243.889,126.187 z"
           id="path3084"
           style="fill:#000000;stroke:#000000;stroke-width:0.21602701" />
        <g
           id="g3086">
          <path
             d="M 230.208,177 L 245.79,177 C 246.896,177 247.8,177.635 247.8,178.412 L 247.8,180.556 C 247.8,181.332 246.896,181.968 245.79,181.968 L 230.208,181.968 C 229.102,181.968 228.198,181.332 228.198,180.556 L 228.198,178.412 C 228.198,177.635 229.102,177 230.208,177 z"
             id="path3088"
             style="fill:#000000;stroke:#000000;stroke-width:0.93611699" />
          <path
             d="M 231.008,178.27 L 244.99,178.27 C 245.886,178.27 246.619,178.623 246.619,179.054 L 246.619,180.48 C 246.619,180.912 245.886,181.265 244.99,181.265 L 231.008,181.265 C 230.112,181.265 229.379,180.912 229.379,180.48 L 229.379,179.054 C 229.379,178.623 230.112,178.27 231.008,178.27 z"
             id="path3090"
             style="fill:#ffff00;stroke:#000000;stroke-width:0.93611699" />
        </g>
        <g
           id="g3092">
          <path
             d="M 226.918,181.305 L 249.564,181.305 C 250.802,181.305 251.815,181.995 251.815,182.84 L 251.815,186.446 C 251.815,187.29 250.802,187.981 249.564,187.981 L 226.918,187.981 C 225.68,187.981 224.667,187.29 224.667,186.446 L 224.667,182.84 C 224.667,181.995 225.68,181.305 226.918,181.305 z"
             id="path3094"
             style="fill:#000000;stroke:#000000;stroke-width:0.93611699" />
          <path
             d="M 227.574,182.498 L 248.908,182.498 C 249.814,182.498 250.555,182.887 250.555,183.361 L 250.555,186.291 C 250.555,186.767 249.814,187.155 248.908,187.155 L 227.574,187.155 C 226.668,187.155 225.928,186.767 225.928,186.291 L 225.928,183.361 C 225.928,182.887 226.668,182.498 227.574,182.498 z"
             id="path3096"
             style="fill:#ffff00;stroke:#000000;stroke-width:0.93611699" />
        </g>
        <path
           d="M 301.255,264.27 C 301.255,298.986 272.947,327.293 238.24,327.293 C 203.534,327.293 175.227,298.986 175.227,264.27 L 175.227,188.214 L 238.241,188.214 L 301.255,188.214 L 301.255,264.27 z"
           id="path3098"
           style="fill:#ffffff;stroke:#000000;stroke-width:1.65620697" />
        <path
           d="M 295.071,263.63 C 295.071,294.94 269.541,320.469 238.24,320.469 C 206.939,320.469 181.41,294.94 181.41,263.63 L 181.411,195.037 L 238.241,195.037 L 295.071,195.037 L 295.071,263.63 z"
           id="path3100"
           style="fill:#9dfd9b;stroke:#000000;stroke-width:1.65620697" />
        <path
           d="M 219.735,229.858 C 219.735,226.499 218.492,223.275 216.005,220.134 C 213.518,217.011 211.002,214.929 208.471,213.871 L 193.372,229.858 L 194.346,232.024 C 195.979,230.143 197.461,229.202 198.765,229.202 C 200.846,229.202 201.895,231.52 201.895,236.189 L 201.895,264.787 C 202.045,266.231 202.12,267.205 202.12,267.726 C 202.12,270.379 201.626,272.142 200.607,273.015 C 199.588,273.888 198.105,274.325 196.128,274.325 L 196.128,276.323 C 198.39,276.323 200.397,276.928 202.15,278.137 C 203.902,279.329 205.46,280.774 206.808,282.453 C 208.156,284.149 209.624,285.996 211.227,288.028 C 212.725,284.686 214.582,281.899 216.814,279.665 C 219.031,277.449 221.277,276.323 223.569,276.323 L 223.569,274.325 C 222.116,273.754 221.128,272.915 220.573,271.789 C 220.019,270.664 219.735,269.002 219.735,266.819 L 219.735,232.024 C 220.244,231.772 221.113,231.285 222.356,230.563 C 223.584,229.824 224.573,229.27 225.322,228.917 C 226.056,228.548 226.76,228.38 227.389,228.38 C 229.231,228.38 230.145,230.613 230.145,235.097 L 230.145,265.862 C 230.145,268.666 229.875,270.765 229.351,272.192 C 228.827,273.62 227.538,274.325 225.472,274.325 L 225.472,276.323 C 227.433,276.323 229.68,277.398 232.182,279.531 C 234.683,281.664 236.84,284.502 238.668,288.028 C 240,284.905 241.918,282.167 244.389,279.833 C 246.876,277.499 249.033,276.323 250.89,276.323 L 250.89,274.325 C 248.418,274.325 247.175,271.504 247.175,265.862 L 247.175,232.931 C 249.048,231.402 250.546,230.244 251.654,229.438 C 252.762,228.648 253.826,228.245 254.829,228.245 C 256.672,228.245 257.586,230.16 257.586,234.022 L 257.586,273.25 C 257.586,278.406 260.746,283.343 267.067,288.028 L 284.068,272.159 L 284.068,270.026 C 282.031,271.454 280.353,272.159 279.035,272.159 C 276.743,272.159 275.59,269.707 275.59,264.787 L 275.59,235.097 C 275.59,232.998 276.024,231.369 276.893,230.227 C 277.762,229.085 278.915,228.514 280.353,228.514 C 280.743,228.514 281.357,228.598 282.166,228.766 L 282.166,226.633 C 279.948,225.744 277.957,224.601 276.219,223.241 C 274.466,221.881 272.864,220.387 271.411,218.757 C 269.958,217.145 268.52,215.517 267.067,213.871 L 247.175,229.858 C 247.415,229.202 247.52,228.481 247.52,227.725 C 247.52,224.904 246.322,222.099 243.895,219.345 C 241.484,216.574 238.773,214.76 235.792,213.871 L 219.735,229.858 z"
           id="path3102"
           style="fill:#ffffff;stroke:#000000;stroke-width:1.21905005" />
      </g>
    </g>
  </g>
  <g
     transform="translate(-10.538538,-10.538538)"
     id="g3104" />
</svg>
